REM DIRINDEX 1\2,1\3,1\4,1\5
REM DIRNAME cjc093,folder01,folder02,folder03,folder04
TITLE ""
FILE "Round-02-036-037.mp3" MP3
  TRACK 01 AUDIO
    TITLE "0:"
    INDEX 01 00:00:00
  TRACK 02 AUDIO
    TITLE "2:cjc093_0432"
    INDEX 01 00:00:03
  TRACK 03 AUDIO
    TITLE "0:"
    INDEX 01 00:01:09
  TRACK 04 AUDIO
    TITLE "3:cjc093_0433"
    INDEX 01 00:01:44
  TRACK 05 AUDIO
    TITLE "0:"
    INDEX 01 00:04:48
  TRACK 06 AUDIO
    TITLE "4:cjc093_0434"
    INDEX 01 00:05:38
  TRACK 07 AUDIO
    TITLE "0:"
    INDEX 01 00:08:42
  TRACK 08 AUDIO
    TITLE "3:cjc093_0435"
    INDEX 01 00:09:59
  TRACK 09 AUDIO
    TITLE "0:"
    INDEX 01 00:11:21
  TRACK 10 AUDIO
    TITLE "4:cjc093_0436"
    INDEX 01 00:11:35
  TRACK 11 AUDIO
    TITLE "0:"
    INDEX 01 00:13:51
  TRACK 12 AUDIO
    TITLE "2:cjc093_0437"
    INDEX 01 00:14:70
  TRACK 13 AUDIO
    TITLE "0:"
    INDEX 01 00:16:10
  TRACK 14 AUDIO
    TITLE "3:cjc093_0438"
    INDEX 01 00:16:46
  TRACK 15 AUDIO
    TITLE "0:"
    INDEX 01 00:18:09
  TRACK 16 AUDIO
    TITLE "4:cjc093_0439"
    INDEX 01 00:18:17
  TRACK 17 AUDIO
    TITLE "0:"
    INDEX 01 00:21:19
  TRACK 18 AUDIO
    TITLE "3:cjc093_0440"
    INDEX 01 00:22:30
  TRACK 19 AUDIO
    TITLE "0:"
    INDEX 01 00:24:00
  TRACK 20 AUDIO
    TITLE "4:cjc093_0441"
    INDEX 01 00:24:16
  TRACK 21 AUDIO
    TITLE "0:"
    INDEX 01 00:27:16
  TRACK 22 AUDIO
    TITLE "2:cjc093_0442"
    INDEX 01 00:28:25
  TRACK 23 AUDIO
    TITLE "0:"
    INDEX 01 00:29:36
  TRACK 24 AUDIO
    TITLE "3:cjc093_0443"
    INDEX 01 00:29:60
  TRACK 25 AUDIO
    TITLE "0:"
    INDEX 01 00:31:29
  TRACK 26 AUDIO
    TITLE "4:cjc093_0444"
    INDEX 01 00:31:49
  TRACK 27 AUDIO
    TITLE "0:"
    INDEX 01 00:34:63
  TRACK 28 AUDIO
    TITLE "4:cjc093_0445"
    INDEX 01 00:35:35
  TRACK 29 AUDIO
    TITLE "0:"
    INDEX 01 00:39:27
  TRACK 30 AUDIO
    TITLE "2:cjc093_0446"
    INDEX 01 00:40:38
  TRACK 31 AUDIO
    TITLE "0:"
    INDEX 01 00:41:24
  TRACK 32 AUDIO
    TITLE "3:cjc093_0447"
    INDEX 01 00:41:67
  TRACK 33 AUDIO
    TITLE "0:"
    INDEX 01 00:43:39
  TRACK 34 AUDIO
    TITLE "4:cjc093_0448"
    INDEX 01 00:43:54
  TRACK 35 AUDIO
    TITLE "0:"
    INDEX 01 00:46:17
  TRACK 36 AUDIO
    TITLE "3:cjc093_0449"
    INDEX 01 00:47:30
  TRACK 37 AUDIO
    TITLE "0:"
    INDEX 01 00:48:51
  TRACK 38 AUDIO
    TITLE "4:cjc093_0450"
    INDEX 01 00:48:73
  TRACK 39 AUDIO
    TITLE "0:"
    INDEX 01 00:51:42
  TRACK 40 AUDIO
    TITLE "2:cjc093_0451"
    INDEX 01 00:52:53
  TRACK 41 AUDIO
    TITLE "0:"
    INDEX 01 00:53:51
  TRACK 42 AUDIO
    TITLE "3:cjc093_0452"
    INDEX 01 00:54:15
  TRACK 43 AUDIO
    TITLE "0:"
    INDEX 01 00:55:46
  TRACK 44 AUDIO
    TITLE "4:cjc093_0453"
    INDEX 01 00:55:48
  TRACK 45 AUDIO
    TITLE "0:"
    INDEX 01 00:58:22
  TRACK 46 AUDIO
    TITLE "3:cjc093_0454"
    INDEX 01 00:59:34
  TRACK 47 AUDIO
    TITLE "0:"
    INDEX 01 01:01:15
  TRACK 48 AUDIO
    TITLE "4:cjc093_0455"
    INDEX 01 01:01:40
  TRACK 49 AUDIO
    TITLE "0:"
    INDEX 01 01:04:56
  TRACK 50 AUDIO
    TITLE "2:cjc093_0456"
    INDEX 01 01:06:06
  TRACK 51 AUDIO
    TITLE "0:"
    INDEX 01 01:07:17
  TRACK 52 AUDIO
    TITLE "3:cjc093_0457"
    INDEX 01 01:07:59
  TRACK 53 AUDIO
    TITLE "0:"
    INDEX 01 01:09:30
  TRACK 54 AUDIO
    TITLE "4:cjc093_0458"
    INDEX 01 01:10:12
  TRACK 55 AUDIO
    TITLE "0:"
    INDEX 01 01:14:17
  TRACK 56 AUDIO
    TITLE "3:cjc093_0459"
    INDEX 01 01:15:31
  TRACK 57 AUDIO
    TITLE "0:"
    INDEX 01 01:17:22
  TRACK 58 AUDIO
    TITLE "4:cjc093_0460"
    INDEX 01 01:17:45
  TRACK 59 AUDIO
    TITLE "0:"
    INDEX 01 01:19:72
  TRACK 60 AUDIO
    TITLE "3:cjc093_0461"
    INDEX 01 01:21:06
  TRACK 61 AUDIO
    TITLE "0:"
    INDEX 01 01:23:40
  TRACK 62 AUDIO
    TITLE "4:cjc093_0462"
    INDEX 01 01:24:34
  TRACK 63 AUDIO
    TITLE "0:"
    INDEX 01 01:27:55
  TRACK 64 AUDIO
    TITLE "2:cjc093_0463"
    INDEX 01 01:28:69
  TRACK 65 AUDIO
    TITLE "0:"
    INDEX 01 01:29:66
  TRACK 66 AUDIO
    TITLE "3:cjc093_0464"
    INDEX 01 01:30:36
  TRACK 67 AUDIO
    TITLE "0:"
    INDEX 01 01:32:13
  TRACK 68 AUDIO
    TITLE "4:cjc093_0465"
    INDEX 01 01:32:59
  TRACK 69 AUDIO
    TITLE "0:"
    INDEX 01 01:35:43
